<svg width="108" height="109" viewBox="0 0 108 109" fill="none" xmlns="http://www.w3.org/2000/svg">
<g clip-path="url(#clip0_4_3684)">
<path d="M46.0775 87.2085C69.4397 85.3947 79.8726 70.4327 81.8546 57.0547C83.9715 42.5781 79.3834 32.2913 67.8204 25.4873C67.3396 25.1977 66.842 24.9252 66.3444 24.6357C65.754 24.525 65.1636 24.4398 64.5648 24.3632C43.7497 21.8511 27.1853 37.2984 23.6599 48.9308C20.8087 58.1959 20.8087 68.1164 23.6599 77.3815C25.6735 80.8464 27.9729 84.1337 30.5336 87.2085C35.7075 87.6038 40.9036 87.6038 46.0775 87.2085V87.2085ZM53.55 28.4507C68.3348 28.5444 76.9038 41.1305 76.9038 54.8491C76.926 58.1105 76.3104 61.3442 75.0922 64.3649C73.874 67.3855 72.0773 70.1336 69.805 72.4516C67.5327 74.7697 64.8295 76.612 61.8505 77.873C58.8715 79.134 55.6753 79.7888 52.4452 79.7999C38.8411 79.7999 26.9238 68.7296 26.9238 55.028C26.9491 40.0234 39.9544 28.3315 53.55 28.4166V28.4507Z" fill="url(#paint0_linear_4_3684)"/>
<path d="M19.8055 68.5252C19.0362 61.7334 19.6914 54.8541 21.7285 48.3347C25.2792 36.5405 40.4014 21.7659 60.4659 22.047C53.67 19.6368 46.5721 18.2035 39.3809 17.7891C29.1589 28.1867 21.8297 36.9152 18.8947 56.2031C18.2928 60.328 18.6038 64.5363 19.8055 68.5252V68.5252Z" fill="url(#paint1_linear_4_3684)"/>
<path d="M73.3278 26.7646C82.3775 33.9433 85.8354 44.0002 83.8703 57.3442C83.1165 62.2558 81.3618 66.9561 78.7171 71.148C85.9704 63.5691 91.6127 53.8187 95.349 45.9844C90.4235 39.2911 83.1281 30.9202 73.3278 26.7646Z" fill="url(#paint2_linear_4_3684)"/>
<path d="M96.5297 47.6875C90.6259 59.405 80.6401 74.6565 68.6975 81.75C63.013 85.7353 55.6163 88.5625 46.2462 89.3119C43.522 89.5248 40.8737 89.6184 38.3182 89.6184C36.2603 89.6184 34.2783 89.5503 32.3469 89.4481C34.8096 92.7437 43.3111 96.729 47.8824 97.3251C58.8466 98.7557 65.3492 89.38 74.576 82.2695C85.2282 74.0348 97.0358 71.7867 98.613 61.832C99.566 55.8029 97.8792 49.7823 96.5297 47.6875Z" fill="url(#paint3_linear_4_3684)"/>
<path d="M26.7973 86.8594L27.6407 86.9531C21.3658 78.9569 14.9897 68.2187 16.8368 55.888C19.7718 36.8641 27.101 27.5055 36.5977 17.6955C35.8217 17.6955 35.0542 17.6955 34.312 17.6955C30.7782 18.0191 25.819 19.0069 23.2213 21.9533C16.6175 29.3619 17.444 41.0113 15.5211 47.0829C13.5981 53.1545 6.56413 64.3866 10.1655 75.0397C12.839 82.8996 23.4828 86.0589 26.7973 86.8594Z" fill="url(#paint4_linear_4_3684)"/>
<path d="M41.2279 15.9072C49.7969 16.631 59.3273 18.6748 67.0191 22.7197C80.3617 25.2744 89.9596 35.4335 96.1418 43.6596C96.9852 40.066 98.2587 32.5893 95.602 28.3315C90.6765 20.4375 82.4955 24.0737 69.8698 19.5859C63.966 17.4911 58.1803 11.4535 52.6476 11.5727C48.48 11.7477 44.4776 13.2668 41.2279 15.9072V15.9072Z" fill="url(#paint5_linear_4_3684)"/>
</g>
<path d="M38.9568 63.78C38.9368 63.8733 38.9201 63.97 38.9068 64.07C38.9001 64.17 38.8935 64.28 38.8868 64.4C38.8868 64.5133 38.8835 64.6433 38.8768 64.79C38.8768 64.9367 38.8768 65.1033 38.8768 65.29C38.8768 65.6767 38.8768 65.9967 38.8768 66.25C38.8835 66.5033 38.8935 66.7533 38.9068 67L38.4468 67.12L38.0868 66.52C37.8201 66.6933 37.4968 66.8367 37.1168 66.95C36.7368 67.0633 36.3535 67.12 35.9668 67.12C35.6135 67.12 35.2701 67.0767 34.9368 66.99C34.6101 66.9033 34.3201 66.74 34.0668 66.5C33.8135 66.2533 33.6101 65.9133 33.4568 65.48C33.3035 65.0467 33.2268 64.4833 33.2268 63.79C33.2268 62.47 33.5035 61.49 34.0568 60.85C34.6101 60.2033 35.4035 59.88 36.4368 59.88C36.5968 59.88 36.7435 59.8867 36.8768 59.9C37.0101 59.9133 37.1335 59.9267 37.2468 59.94C37.3601 59.9533 37.4701 59.9667 37.5768 59.98C37.6835 59.9933 37.7901 60 37.8968 60C38.0035 60 38.1135 59.9933 38.2268 59.98C38.3401 59.96 38.4635 59.93 38.5968 59.89L38.7068 62.19L37.5968 62.32C37.6035 62.2733 37.6068 62.23 37.6068 62.19C37.6068 62.1433 37.6068 62.0967 37.6068 62.05C37.6068 61.8767 37.5901 61.71 37.5568 61.55C37.5235 61.39 37.4635 61.25 37.3768 61.13C37.2901 61.0033 37.1701 60.9033 37.0168 60.83C36.8635 60.7567 36.6701 60.72 36.4368 60.72C35.1701 60.72 34.5368 61.65 34.5368 63.51C34.5368 63.9567 34.5735 64.3367 34.6468 64.65C34.7268 64.9633 34.8401 65.22 34.9868 65.42C35.1401 65.62 35.3268 65.7667 35.5468 65.86C35.7735 65.9533 36.0301 66 36.3168 66C36.5568 66 36.7835 65.9667 36.9968 65.9C37.2168 65.8333 37.4335 65.7433 37.6468 65.63V64.63L36.4268 64.69L36.3368 63.78H38.9568ZM41.0391 64.74C41.0724 65.2467 41.1757 65.6033 41.3491 65.81C41.5224 66.01 41.7857 66.11 42.1391 66.11C42.4057 66.11 42.6557 66.07 42.8891 65.99C43.1291 65.91 43.3257 65.8367 43.4791 65.77V66.6C43.2657 66.7933 42.9991 66.9267 42.6791 67C42.3591 67.08 42.0491 67.12 41.7491 67.12C41.5024 67.12 41.2591 67.09 41.0191 67.03C40.7791 66.97 40.5624 66.8567 40.3691 66.69C40.1824 66.5167 40.0291 66.28 39.9091 65.98C39.7957 65.6733 39.7391 65.2733 39.7391 64.78C39.7391 64.2933 39.7991 63.87 39.9191 63.51C40.0391 63.1433 40.2024 62.84 40.4091 62.6C40.6224 62.36 40.8691 62.18 41.1491 62.06C41.4357 61.94 41.7457 61.88 42.0791 61.88C42.4191 61.88 42.6957 61.94 42.9091 62.06C43.1291 62.1733 43.2991 62.32 43.4191 62.5C43.5457 62.68 43.6291 62.88 43.6691 63.1C43.7157 63.32 43.7391 63.5333 43.7391 63.74C43.7391 63.9533 43.7224 64.1467 43.6891 64.32C43.6624 64.4933 43.6257 64.6333 43.5791 64.74H41.0391ZM41.8991 62.61C41.6391 62.61 41.4357 62.7233 41.2891 62.95C41.1491 63.17 41.0657 63.52 41.0391 64H42.6891C42.6891 63.9733 42.6891 63.94 42.6891 63.9C42.6957 63.86 42.6991 63.8233 42.6991 63.79C42.6991 63.6833 42.6891 63.5633 42.6691 63.43C42.6491 63.29 42.6091 63.16 42.5491 63.04C42.4891 62.92 42.4057 62.82 42.2991 62.74C42.1991 62.6533 42.0657 62.61 41.8991 62.61ZM45.4273 61.88C45.5606 62.0733 45.6673 62.2433 45.7473 62.39C45.8273 62.5367 45.8873 62.6867 45.9273 62.84C46.0273 62.7333 46.1406 62.6233 46.2673 62.51C46.3939 62.39 46.5273 62.2867 46.6673 62.2C46.8139 62.1067 46.9706 62.03 47.1373 61.97C47.3039 61.91 47.4773 61.88 47.6573 61.88C47.8239 61.88 47.9839 61.91 48.1373 61.97C48.2973 62.03 48.4373 62.13 48.5573 62.27C48.6773 62.41 48.7739 62.6 48.8473 62.84C48.9206 63.08 48.9573 63.38 48.9573 63.74C48.9573 63.8333 48.9539 63.97 48.9473 64.15C48.9473 64.33 48.9439 64.5233 48.9373 64.73C48.9306 64.93 48.9239 65.1233 48.9173 65.31C48.9173 65.4967 48.9173 65.64 48.9173 65.74C48.9173 65.96 48.9306 66.1733 48.9573 66.38C48.9906 66.58 49.0439 66.7467 49.1173 66.88L47.7273 67.12C47.6806 66.9667 47.6506 66.8 47.6373 66.62C47.6306 66.44 47.6273 66.2833 47.6273 66.15C47.6273 65.9633 47.6306 65.7733 47.6373 65.58C47.6506 65.38 47.6606 65.19 47.6673 65.01C47.6806 64.8233 47.6906 64.65 47.6973 64.49C47.7106 64.3233 47.7173 64.18 47.7173 64.06C47.7173 63.6667 47.6506 63.3967 47.5173 63.25C47.3839 63.1033 47.2006 63.03 46.9673 63.03C46.7739 63.03 46.5939 63.06 46.4273 63.12C46.2673 63.18 46.1239 63.2533 45.9973 63.34C46.0106 63.4667 46.0173 63.6067 46.0173 63.76C46.0173 63.9133 46.0173 64.09 46.0173 64.29C46.0173 64.5967 46.0173 64.8733 46.0173 65.12C46.0173 65.3667 46.0173 65.5967 46.0173 65.81C46.0239 66.0233 46.0273 66.2267 46.0273 66.42C46.0339 66.6067 46.0406 66.8 46.0473 67H44.6973C44.7039 66.84 44.7106 66.66 44.7173 66.46C44.7239 66.26 44.7306 66.05 44.7373 65.83C44.7506 65.6033 44.7606 65.3733 44.7673 65.14C44.7739 64.9 44.7773 64.67 44.7773 64.45C44.7773 64.19 44.7706 63.98 44.7573 63.82C44.7439 63.6533 44.7173 63.51 44.6773 63.39C44.6373 63.2633 44.5839 63.15 44.5173 63.05C44.4506 62.9433 44.3639 62.8233 44.2573 62.69L45.4273 61.88ZM49.636 67.12C49.816 66.4467 49.996 65.8033 50.176 65.19C50.3627 64.57 50.556 63.97 50.756 63.39C50.956 62.81 51.1694 62.24 51.396 61.68C51.6294 61.12 51.8794 60.56 52.146 60L53.396 59.88C53.6627 60.4333 53.9094 60.9867 54.136 61.54C54.3627 62.0933 54.576 62.6633 54.776 63.25C54.9827 63.83 55.176 64.43 55.356 65.05C55.5427 65.67 55.726 66.32 55.906 67L54.546 67.12C54.4527 66.7667 54.3594 66.4133 54.266 66.06C54.1727 65.7 54.0794 65.34 53.986 64.98H51.516C51.4227 65.3067 51.3327 65.6367 51.246 65.97C51.1594 66.3033 51.0794 66.6467 51.006 67L49.636 67.12ZM52.776 61.13C52.3894 62.0767 52.0527 63.0533 51.766 64.06H53.736C53.5894 63.56 53.436 63.0633 53.276 62.57C53.1227 62.0767 52.956 61.5967 52.776 61.13ZM60.6095 64.01H58.1295C58.1295 64.6233 58.1295 65.1667 58.1295 65.64C58.1361 66.1067 58.1461 66.56 58.1595 67H56.7495C56.7561 66.68 56.7628 66.4 56.7695 66.16C56.7828 65.9133 56.7928 65.66 56.7995 65.4C56.8061 65.1333 56.8128 64.83 56.8195 64.49C56.8261 64.15 56.8295 63.7233 56.8295 63.21C56.8295 62.6967 56.8261 62.17 56.8195 61.63C56.8128 61.0833 56.7995 60.54 56.7795 60H61.0295V60.98H58.1495C58.1361 61.26 58.1295 61.57 58.1295 61.91C58.1295 62.25 58.1295 62.6433 58.1295 63.09H60.6095V64.01ZM63.0833 67.12C63.2633 66.4467 63.4433 65.8033 63.6233 65.19C63.81 64.57 64.0033 63.97 64.2033 63.39C64.4033 62.81 64.6166 62.24 64.8433 61.68C65.0766 61.12 65.3266 60.56 65.5933 60L66.8433 59.88C67.11 60.4333 67.3566 60.9867 67.5833 61.54C67.81 62.0933 68.0233 62.6633 68.2233 63.25C68.43 63.83 68.6233 64.43 68.8033 65.05C68.99 65.67 69.1733 66.32 69.3533 67L67.9933 67.12C67.9 66.7667 67.8066 66.4133 67.7133 66.06C67.62 65.7 67.5266 65.34 67.4333 64.98H64.9633C64.87 65.3067 64.78 65.6367 64.6933 65.97C64.6066 66.3033 64.5266 66.6467 64.4533 67L63.0833 67.12ZM66.2233 61.13C65.8366 62.0767 65.5 63.0533 65.2133 64.06H67.1833C67.0366 63.56 66.8833 63.0633 66.7233 62.57C66.57 62.0767 66.4033 61.5967 66.2233 61.13ZM71.6567 60C71.6367 60.2133 71.6201 60.4333 71.6067 60.66C71.6001 60.88 71.5934 61.1267 71.5867 61.4C71.5867 61.6667 71.5834 61.9667 71.5767 62.3C71.5767 62.6333 71.5767 63.0133 71.5767 63.44C71.5767 63.84 71.5767 64.2033 71.5767 64.53C71.5767 64.85 71.5767 65.15 71.5767 65.43C71.5834 65.71 71.5867 65.9767 71.5867 66.23C71.5934 66.4833 71.6001 66.74 71.6067 67H70.1967C70.2034 66.68 70.2101 66.4 70.2167 66.16C70.2301 65.9133 70.2401 65.66 70.2467 65.4C70.2534 65.1333 70.2601 64.83 70.2667 64.49C70.2734 64.15 70.2767 63.7233 70.2767 63.21C70.2767 62.6967 70.2734 62.1867 70.2667 61.68C70.2601 61.1667 70.2467 60.64 70.2267 60.1L71.6567 60Z" fill="#E7F0F3"/>
<path d="M51.642 44.7567C52.3249 44.7567 52.8786 44.1823 52.8786 43.4738C52.8786 42.7652 52.3249 42.1908 51.642 42.1908C50.959 42.1908 50.4053 42.7652 50.4053 43.4738C50.4053 44.1823 50.959 44.7567 51.642 44.7567Z" fill="url(#paint6_linear_4_3684)"/>
<path d="M57.3666 44.7567C58.0495 44.7567 58.6032 44.1823 58.6032 43.4738C58.6032 42.7652 58.0495 42.1908 57.3666 42.1908C56.6836 42.1908 56.1299 42.7652 56.1299 43.4738C56.1299 44.1823 56.6836 44.7567 57.3666 44.7567Z" fill="url(#paint7_linear_4_3684)"/>
<path d="M53.0731 47.3276C53.7561 47.3276 54.3098 46.7532 54.3098 46.0446C54.3098 45.336 53.7561 44.7616 53.0731 44.7616C52.3901 44.7616 51.8365 45.336 51.8365 46.0446C51.8365 46.7532 52.3901 47.3276 53.0731 47.3276Z" fill="url(#paint8_linear_4_3684)"/>
<path d="M55.9354 42.1859C56.6184 42.1859 57.172 41.6115 57.172 40.9029C57.172 40.1943 56.6184 39.6199 55.9354 39.6199C55.2524 39.6199 54.6988 40.1943 54.6988 40.9029C54.6988 41.6115 55.2524 42.1859 55.9354 42.1859Z" fill="url(#paint9_linear_4_3684)"/>
<path d="M55.9354 47.3276C56.6184 47.3276 57.172 46.7532 57.172 46.0446C57.172 45.336 56.6184 44.7616 55.9354 44.7616C55.2524 44.7616 54.6988 45.336 54.6988 46.0446C54.6988 46.7532 55.2524 47.3276 55.9354 47.3276Z" fill="url(#paint10_linear_4_3684)"/>
<path d="M53.0731 42.1859C53.7561 42.1859 54.3098 41.6115 54.3098 40.9029C54.3098 40.1943 53.7561 39.6199 53.0731 39.6199C52.3901 39.6199 51.8365 40.1943 51.8365 40.9029C51.8365 41.6115 52.3901 42.1859 53.0731 42.1859Z" fill="url(#paint11_linear_4_3684)"/>
<path d="M60.8266 44.1727C61.1847 44.1727 61.475 43.8715 61.475 43.5C61.475 43.1285 61.1847 42.8273 60.8266 42.8273C60.4685 42.8273 60.1782 43.1285 60.1782 43.5C60.1782 43.8715 60.4685 44.1727 60.8266 44.1727Z" fill="url(#paint12_linear_4_3684)"/>
<path d="M48.1819 44.1727C48.54 44.1727 48.8303 43.8715 48.8303 43.5C48.8303 43.1285 48.54 42.8273 48.1819 42.8273C47.8238 42.8273 47.5336 43.1285 47.5336 43.5C47.5336 43.8715 47.8238 44.1727 48.1819 44.1727Z" fill="url(#paint13_linear_4_3684)"/>
<path d="M45.8826 43.9266C46.1097 43.9266 46.2938 43.7356 46.2938 43.5C46.2938 43.2644 46.1097 43.0734 45.8826 43.0734C45.6555 43.0734 45.4714 43.2644 45.4714 43.5C45.4714 43.7356 45.6555 43.9266 45.8826 43.9266Z" fill="url(#paint14_linear_4_3684)"/>
<path d="M63.1259 43.9266C63.353 43.9266 63.5371 43.7356 63.5371 43.5C63.5371 43.2644 63.353 43.0734 63.1259 43.0734C62.8989 43.0734 62.7148 43.2644 62.7148 43.5C62.7148 43.7356 62.8989 43.9266 63.1259 43.9266Z" fill="url(#paint15_linear_4_3684)"/>
<path d="M57.6654 38.4912C58.0235 38.4912 58.3138 38.19 58.3138 37.8185C58.3138 37.447 58.0235 37.1459 57.6654 37.1459C57.3074 37.1459 57.0171 37.447 57.0171 37.8185C57.0171 38.19 57.3074 38.4912 57.6654 38.4912Z" fill="url(#paint16_linear_4_3684)"/>
<path d="M51.3431 49.8541C51.7012 49.8541 51.9915 49.553 51.9915 49.1815C51.9915 48.81 51.7012 48.5088 51.3431 48.5088C50.985 48.5088 50.6947 48.81 50.6947 49.1815C50.6947 49.553 50.985 49.8541 51.3431 49.8541Z" fill="url(#paint17_linear_4_3684)"/>
<path d="M50.1934 51.672C50.4205 51.672 50.6046 51.481 50.6046 51.2454C50.6046 51.0098 50.4205 50.8188 50.1934 50.8188C49.9664 50.8188 49.7823 51.0098 49.7823 51.2454C49.7823 51.481 49.9664 51.672 50.1934 51.672Z" fill="url(#paint18_linear_4_3684)"/>
<path d="M58.8151 36.1812C59.0422 36.1812 59.2263 35.9902 59.2263 35.7546C59.2263 35.519 59.0422 35.328 58.8151 35.328C58.588 35.328 58.4039 35.519 58.4039 35.7546C58.4039 35.9902 58.588 36.1812 58.8151 36.1812Z" fill="url(#paint19_linear_4_3684)"/>
<path d="M51.3431 38.4912C51.7012 38.4912 51.9915 38.19 51.9915 37.8185C51.9915 37.447 51.7012 37.1459 51.3431 37.1459C50.985 37.1459 50.6947 37.447 50.6947 37.8185C50.6947 38.19 50.985 38.4912 51.3431 38.4912Z" fill="url(#paint20_linear_4_3684)"/>
<path d="M57.6654 49.8541C58.0235 49.8541 58.3138 49.553 58.3138 49.1815C58.3138 48.81 58.0235 48.5088 57.6654 48.5088C57.3074 48.5088 57.0171 48.81 57.0171 49.1815C57.0171 49.553 57.3074 49.8541 57.6654 49.8541Z" fill="url(#paint21_linear_4_3684)"/>
<path d="M58.8151 51.672C59.0422 51.672 59.2263 51.481 59.2263 51.2454C59.2263 51.0098 59.0422 50.8188 58.8151 50.8188C58.588 50.8188 58.4039 51.0098 58.4039 51.2454C58.4039 51.481 58.588 51.672 58.8151 51.672Z" fill="url(#paint22_linear_4_3684)"/>
<path d="M50.1934 36.1812C50.4205 36.1812 50.6046 35.9902 50.6046 35.7546C50.6046 35.519 50.4205 35.328 50.1934 35.328C49.9664 35.328 49.7823 35.519 49.7823 35.7546C49.7823 35.9902 49.9664 36.1812 50.1934 36.1812Z" fill="url(#paint23_linear_4_3684)"/>
<path d="M54.5043 39.1409C54.9165 39.1409 55.2507 38.7942 55.2507 38.3665C55.2507 37.9388 54.9165 37.5921 54.5043 37.5921C54.092 37.5921 53.7579 37.9388 53.7579 38.3665C53.7579 38.7942 54.092 39.1409 54.5043 39.1409Z" fill="url(#paint24_linear_4_3684)"/>
<path d="M54.5043 35.835C54.7864 35.835 55.015 35.5977 55.015 35.3051C55.015 35.0124 54.7864 34.7752 54.5043 34.7752C54.2222 34.7752 53.9935 35.0124 53.9935 35.3051C53.9935 35.5977 54.2222 35.835 54.5043 35.835Z" fill="url(#paint25_linear_4_3684)"/>
<path d="M54.5043 49.4079C54.9165 49.4079 55.2507 49.0612 55.2507 48.6335C55.2507 48.2058 54.9165 47.8591 54.5043 47.8591C54.092 47.8591 53.7579 48.2058 53.7579 48.6335C53.7579 49.0612 54.092 49.4079 54.5043 49.4079Z" fill="url(#paint26_linear_4_3684)"/>
<path d="M54.5043 52.2248C54.7864 52.2248 55.015 51.9876 55.015 51.6949C55.015 51.4023 54.7864 51.165 54.5043 51.165C54.2222 51.165 53.9935 51.4023 53.9935 51.6949C53.9935 51.9876 54.2222 52.2248 54.5043 52.2248Z" fill="url(#paint27_linear_4_3684)"/>
<path d="M50.2187 41.7084C50.631 41.7084 50.9651 41.3617 50.9651 40.9341C50.9651 40.5064 50.631 40.1597 50.2187 40.1597C49.8065 40.1597 49.4723 40.5064 49.4723 40.9341C49.4723 41.3617 49.8065 41.7084 50.2187 41.7084Z" fill="url(#paint28_linear_4_3684)"/>
<path d="M47.6632 39.9316C47.9453 39.9316 48.174 39.6944 48.174 39.4017C48.174 39.1091 47.9453 38.8718 47.6632 38.8718C47.3811 38.8718 47.1524 39.1091 47.1524 39.4017C47.1524 39.6944 47.3811 39.9316 47.6632 39.9316Z" fill="url(#paint29_linear_4_3684)"/>
<path d="M58.7898 46.8403C59.202 46.8403 59.5362 46.4936 59.5362 46.0659C59.5362 45.6383 59.202 45.2916 58.7898 45.2916C58.3776 45.2916 58.0434 45.6383 58.0434 46.0659C58.0434 46.4936 58.3776 46.8403 58.7898 46.8403Z" fill="url(#paint30_linear_4_3684)"/>
<path d="M61.3453 48.1282C61.6274 48.1282 61.8561 47.8909 61.8561 47.5983C61.8561 47.3056 61.6274 47.0684 61.3453 47.0684C61.0632 47.0684 60.8345 47.3056 60.8345 47.5983C60.8345 47.8909 61.0632 48.1282 61.3453 48.1282Z" fill="url(#paint31_linear_4_3684)"/>
<path d="M50.2187 46.8403C50.631 46.8403 50.9651 46.4936 50.9651 46.0659C50.9651 45.6383 50.631 45.2916 50.2187 45.2916C49.8065 45.2916 49.4723 45.6383 49.4723 46.0659C49.4723 46.4936 49.8065 46.8403 50.2187 46.8403Z" fill="url(#paint32_linear_4_3684)"/>
<path d="M47.6632 48.1282C47.9453 48.1282 48.174 47.8909 48.174 47.5983C48.174 47.3056 47.9453 47.0684 47.6632 47.0684C47.3811 47.0684 47.1524 47.3056 47.1524 47.5983C47.1524 47.8909 47.3811 48.1282 47.6632 48.1282Z" fill="url(#paint33_linear_4_3684)"/>
<path d="M58.7898 41.7084C59.202 41.7084 59.5362 41.3617 59.5362 40.9341C59.5362 40.5064 59.202 40.1597 58.7898 40.1597C58.3776 40.1597 58.0434 40.5064 58.0434 40.9341C58.0434 41.3617 58.3776 41.7084 58.7898 41.7084Z" fill="url(#paint34_linear_4_3684)"/>
<path d="M61.3453 39.9316C61.6274 39.9316 61.8561 39.6944 61.8561 39.4017C61.8561 39.1091 61.6274 38.8718 61.3453 38.8718C61.0632 38.8718 60.8345 39.1091 60.8345 39.4017C60.8345 39.6944 61.0632 39.9316 61.3453 39.9316Z" fill="url(#paint35_linear_4_3684)"/>
<defs>
<linearGradient id="paint0_linear_4_3684" x1="51.9381" y1="24.0917" x2="51.9381" y2="87.505" gradientUnits="userSpaceOnUse">
<stop stop-color="#8FBACA"/>
<stop offset="1" stop-color="#F2F2F2"/>
</linearGradient>
<linearGradient id="paint1_linear_4_3684" x1="39.5311" y1="17.7891" x2="39.5311" y2="68.5252" gradientUnits="userSpaceOnUse">
<stop stop-color="#8FBACA"/>
<stop offset="1" stop-color="#F2F2F2"/>
</linearGradient>
<linearGradient id="paint2_linear_4_3684" x1="84.3384" y1="26.7646" x2="84.3384" y2="71.148" gradientUnits="userSpaceOnUse">
<stop stop-color="#8FBACA"/>
<stop offset="1" stop-color="#F2F2F2"/>
</linearGradient>
<linearGradient id="paint3_linear_4_3684" x1="65.6194" y1="47.6875" x2="65.6194" y2="97.4712" gradientUnits="userSpaceOnUse">
<stop stop-color="#8FBACA"/>
<stop offset="1" stop-color="#F2F2F2"/>
</linearGradient>
<linearGradient id="paint4_linear_4_3684" x1="22.8763" y1="17.6955" x2="22.8763" y2="86.9531" gradientUnits="userSpaceOnUse">
<stop stop-color="#8FBACA"/>
<stop offset="1" stop-color="#F2F2F2"/>
</linearGradient>
<linearGradient id="paint5_linear_4_3684" x1="69.2131" y1="11.571" x2="69.2131" y2="43.6596" gradientUnits="userSpaceOnUse">
<stop stop-color="#8FBACA"/>
<stop offset="1" stop-color="#F2F2F2"/>
</linearGradient>
<linearGradient id="paint6_linear_4_3684" x1="51.642" y1="42.1908" x2="51.642" y2="44.7567" gradientUnits="userSpaceOnUse">
<stop stop-color="#B3D1DB"/>
<stop offset="1" stop-color="#8FBACA"/>
</linearGradient>
<linearGradient id="paint7_linear_4_3684" x1="57.3666" y1="42.1908" x2="57.3666" y2="44.7567" gradientUnits="userSpaceOnUse">
<stop stop-color="#B3D1DB"/>
<stop offset="1" stop-color="#8FBACA"/>
</linearGradient>
<linearGradient id="paint8_linear_4_3684" x1="53.0731" y1="44.7616" x2="53.0731" y2="47.3276" gradientUnits="userSpaceOnUse">
<stop stop-color="#B3D1DB"/>
<stop offset="1" stop-color="#8FBACA"/>
</linearGradient>
<linearGradient id="paint9_linear_4_3684" x1="55.9354" y1="39.6199" x2="55.9354" y2="42.1859" gradientUnits="userSpaceOnUse">
<stop stop-color="#B3D1DB"/>
<stop offset="1" stop-color="#8FBACA"/>
</linearGradient>
<linearGradient id="paint10_linear_4_3684" x1="55.9354" y1="44.7616" x2="55.9354" y2="47.3276" gradientUnits="userSpaceOnUse">
<stop stop-color="#B3D1DB"/>
<stop offset="1" stop-color="#8FBACA"/>
</linearGradient>
<linearGradient id="paint11_linear_4_3684" x1="53.0731" y1="39.6199" x2="53.0731" y2="42.1859" gradientUnits="userSpaceOnUse">
<stop stop-color="#B3D1DB"/>
<stop offset="1" stop-color="#8FBACA"/>
</linearGradient>
<linearGradient id="paint12_linear_4_3684" x1="60.8266" y1="42.8273" x2="60.8266" y2="44.1727" gradientUnits="userSpaceOnUse">
<stop stop-color="#B3D1DB"/>
<stop offset="1" stop-color="#8FBACA"/>
</linearGradient>
<linearGradient id="paint13_linear_4_3684" x1="48.1819" y1="42.8273" x2="48.1819" y2="44.1727" gradientUnits="userSpaceOnUse">
<stop stop-color="#B3D1DB"/>
<stop offset="1" stop-color="#8FBACA"/>
</linearGradient>
<linearGradient id="paint14_linear_4_3684" x1="45.8826" y1="43.0734" x2="45.8826" y2="43.9266" gradientUnits="userSpaceOnUse">
<stop stop-color="#B3D1DB"/>
<stop offset="1" stop-color="#8FBACA"/>
</linearGradient>
<linearGradient id="paint15_linear_4_3684" x1="63.1259" y1="43.0734" x2="63.1259" y2="43.9266" gradientUnits="userSpaceOnUse">
<stop stop-color="#B3D1DB"/>
<stop offset="1" stop-color="#8FBACA"/>
</linearGradient>
<linearGradient id="paint16_linear_4_3684" x1="57.6654" y1="37.1459" x2="57.6654" y2="38.4912" gradientUnits="userSpaceOnUse">
<stop stop-color="#B3D1DB"/>
<stop offset="1" stop-color="#8FBACA"/>
</linearGradient>
<linearGradient id="paint17_linear_4_3684" x1="51.3431" y1="48.5088" x2="51.3431" y2="49.8541" gradientUnits="userSpaceOnUse">
<stop stop-color="#B3D1DB"/>
<stop offset="1" stop-color="#8FBACA"/>
</linearGradient>
<linearGradient id="paint18_linear_4_3684" x1="50.1934" y1="50.8188" x2="50.1934" y2="51.672" gradientUnits="userSpaceOnUse">
<stop stop-color="#B3D1DB"/>
<stop offset="1" stop-color="#8FBACA"/>
</linearGradient>
<linearGradient id="paint19_linear_4_3684" x1="58.8151" y1="35.328" x2="58.8151" y2="36.1812" gradientUnits="userSpaceOnUse">
<stop stop-color="#B3D1DB"/>
<stop offset="1" stop-color="#8FBACA"/>
</linearGradient>
<linearGradient id="paint20_linear_4_3684" x1="51.3431" y1="37.1459" x2="51.3431" y2="38.4912" gradientUnits="userSpaceOnUse">
<stop stop-color="#B3D1DB"/>
<stop offset="1" stop-color="#8FBACA"/>
</linearGradient>
<linearGradient id="paint21_linear_4_3684" x1="57.6654" y1="48.5088" x2="57.6654" y2="49.8541" gradientUnits="userSpaceOnUse">
<stop stop-color="#B3D1DB"/>
<stop offset="1" stop-color="#8FBACA"/>
</linearGradient>
<linearGradient id="paint22_linear_4_3684" x1="58.8151" y1="50.8188" x2="58.8151" y2="51.672" gradientUnits="userSpaceOnUse">
<stop stop-color="#B3D1DB"/>
<stop offset="1" stop-color="#8FBACA"/>
</linearGradient>
<linearGradient id="paint23_linear_4_3684" x1="50.1934" y1="35.328" x2="50.1934" y2="36.1812" gradientUnits="userSpaceOnUse">
<stop stop-color="#B3D1DB"/>
<stop offset="1" stop-color="#8FBACA"/>
</linearGradient>
<linearGradient id="paint24_linear_4_3684" x1="54.5043" y1="37.5921" x2="54.5043" y2="39.1409" gradientUnits="userSpaceOnUse">
<stop stop-color="#B3D1DB"/>
<stop offset="1" stop-color="#8FBACA"/>
</linearGradient>
<linearGradient id="paint25_linear_4_3684" x1="54.5043" y1="34.7752" x2="54.5043" y2="35.835" gradientUnits="userSpaceOnUse">
<stop stop-color="#B3D1DB"/>
<stop offset="1" stop-color="#8FBACA"/>
</linearGradient>
<linearGradient id="paint26_linear_4_3684" x1="54.5043" y1="47.8591" x2="54.5043" y2="49.4079" gradientUnits="userSpaceOnUse">
<stop stop-color="#B3D1DB"/>
<stop offset="1" stop-color="#8FBACA"/>
</linearGradient>
<linearGradient id="paint27_linear_4_3684" x1="54.5043" y1="51.165" x2="54.5043" y2="52.2248" gradientUnits="userSpaceOnUse">
<stop stop-color="#B3D1DB"/>
<stop offset="1" stop-color="#8FBACA"/>
</linearGradient>
<linearGradient id="paint28_linear_4_3684" x1="50.2187" y1="40.1597" x2="50.2187" y2="41.7084" gradientUnits="userSpaceOnUse">
<stop stop-color="#B3D1DB"/>
<stop offset="1" stop-color="#8FBACA"/>
</linearGradient>
<linearGradient id="paint29_linear_4_3684" x1="47.6632" y1="38.8718" x2="47.6632" y2="39.9316" gradientUnits="userSpaceOnUse">
<stop stop-color="#B3D1DB"/>
<stop offset="1" stop-color="#8FBACA"/>
</linearGradient>
<linearGradient id="paint30_linear_4_3684" x1="58.7898" y1="45.2916" x2="58.7898" y2="46.8403" gradientUnits="userSpaceOnUse">
<stop stop-color="#B3D1DB"/>
<stop offset="1" stop-color="#8FBACA"/>
</linearGradient>
<linearGradient id="paint31_linear_4_3684" x1="61.3453" y1="47.0684" x2="61.3453" y2="48.1282" gradientUnits="userSpaceOnUse">
<stop stop-color="#B3D1DB"/>
<stop offset="1" stop-color="#8FBACA"/>
</linearGradient>
<linearGradient id="paint32_linear_4_3684" x1="50.2187" y1="45.2916" x2="50.2187" y2="46.8403" gradientUnits="userSpaceOnUse">
<stop stop-color="#B3D1DB"/>
<stop offset="1" stop-color="#8FBACA"/>
</linearGradient>
<linearGradient id="paint33_linear_4_3684" x1="47.6632" y1="47.0684" x2="47.6632" y2="48.1282" gradientUnits="userSpaceOnUse">
<stop stop-color="#B3D1DB"/>
<stop offset="1" stop-color="#8FBACA"/>
</linearGradient>
<linearGradient id="paint34_linear_4_3684" x1="58.7898" y1="40.1597" x2="58.7898" y2="41.7084" gradientUnits="userSpaceOnUse">
<stop stop-color="#B3D1DB"/>
<stop offset="1" stop-color="#8FBACA"/>
</linearGradient>
<linearGradient id="paint35_linear_4_3684" x1="61.3453" y1="38.8718" x2="61.3453" y2="39.9316" gradientUnits="userSpaceOnUse">
<stop stop-color="#B3D1DB"/>
<stop offset="1" stop-color="#8FBACA"/>
</linearGradient>
<clipPath id="clip0_4_3684">
<rect width="107.955" height="109" fill="white" transform="translate(0.0446396)"/>
</clipPath>
</defs>
</svg>
