<svg width="800" height="800" viewBox="0 0 800 800" fill="none" xmlns="http://www.w3.org/2000/svg">
<g clip-path="url(#clip0_7_5353)">
<path d="M341.125 640.063C514.25 626.75 591.563 516.938 606.25 418.75C621.938 312.5 587.938 237 502.25 187.063C498.688 184.938 495 182.938 491.313 180.813C486.938 180 482.563 179.375 478.125 178.813C323.875 160.375 201.125 273.75 175 359.125C153.872 427.126 153.872 499.937 175 567.938C189.922 593.368 206.961 617.495 225.938 640.063C264.279 642.964 302.784 642.964 341.125 640.063V640.063ZM396.5 208.813C506.063 209.5 569.562 301.875 569.562 402.563C569.727 426.499 565.165 450.233 556.138 472.403C547.111 494.572 533.796 514.742 516.957 531.755C500.118 548.768 480.086 562.29 458.011 571.545C435.935 580.8 412.25 585.606 388.313 585.688C287.5 585.688 199.188 504.438 199.188 403.875C199.375 293.75 295.75 207.938 396.5 208.563V208.813Z" fill="url(#paint0_linear_7_5353)"/>
<path d="M146.437 502.938C140.736 453.089 145.591 402.599 160.687 354.75C187 268.187 299.062 159.75 447.75 161.812C397.389 144.123 344.791 133.604 291.5 130.562C215.75 206.875 161.437 270.938 139.687 412.5C135.227 442.774 137.532 473.661 146.437 502.938V502.938Z" fill="url(#paint1_linear_7_5353)"/>
<path d="M543.062 196.438C610.125 249.125 635.75 322.937 621.188 420.875C615.601 456.923 602.598 491.421 583 522.187C636.75 466.562 678.563 395 706.25 337.5C669.75 288.375 615.687 226.937 543.062 196.438Z" fill="url(#paint2_linear_7_5353)"/>
<path d="M715 350C671.25 436 597.25 547.938 508.75 600C466.625 629.25 411.812 650 342.375 655.5C322.187 657.062 302.563 657.75 283.625 657.75C268.375 657.75 253.687 657.25 239.375 656.5C257.625 680.688 320.625 709.938 354.5 714.313C435.75 724.813 483.938 656 552.312 603.813C631.25 543.375 718.75 526.875 730.438 453.813C737.5 409.563 725 365.375 715 350Z" fill="url(#paint3_linear_7_5353)"/>
<path d="M198.25 637.5L204.5 638.188C158 579.5 110.75 500.687 124.438 410.187C146.188 270.562 200.5 201.875 270.875 129.875C265.125 129.875 259.438 129.875 253.938 129.875C227.75 132.25 191 139.5 171.75 161.125C122.813 215.5 128.938 301 114.688 345.563C100.438 390.125 48.3126 472.563 75.0001 550.75C94.8126 608.438 173.688 631.625 198.25 637.5Z" fill="url(#paint4_linear_7_5353)"/>
<path d="M305.188 116.75C368.688 122.063 439.313 137.063 496.313 166.75C595.188 185.5 666.313 260.063 712.125 320.438C718.375 294.063 727.813 239.188 708.125 207.938C671.625 150 611 176.688 517.438 143.75C473.688 128.375 430.812 84.0625 389.812 84.9375C358.928 86.2216 329.269 97.3712 305.188 116.75V116.75Z" fill="url(#paint5_linear_7_5353)"/>
</g>
<path d="M293.296 466.392C293.168 466.989 293.061 467.608 292.976 468.248C292.933 468.888 292.891 469.592 292.848 470.36C292.848 471.085 292.827 471.917 292.784 472.856C292.784 473.795 292.784 474.861 292.784 476.056C292.784 478.531 292.784 480.579 292.784 482.2C292.827 483.821 292.891 485.421 292.976 487L290.032 487.768L287.728 483.928C286.021 485.037 283.952 485.955 281.52 486.68C279.088 487.405 276.635 487.768 274.16 487.768C271.899 487.768 269.701 487.491 267.568 486.936C265.477 486.381 263.621 485.336 262 483.8C260.379 482.221 259.077 480.045 258.096 477.272C257.115 474.499 256.624 470.893 256.624 466.456C256.624 458.008 258.395 451.736 261.936 447.64C265.477 443.501 270.555 441.432 277.168 441.432C278.192 441.432 279.131 441.475 279.984 441.56C280.837 441.645 281.627 441.731 282.352 441.816C283.077 441.901 283.781 441.987 284.464 442.072C285.147 442.157 285.829 442.2 286.512 442.2C287.195 442.2 287.899 442.157 288.624 442.072C289.349 441.944 290.139 441.752 290.992 441.496L291.696 456.216L284.592 457.048C284.635 456.749 284.656 456.472 284.656 456.216C284.656 455.917 284.656 455.619 284.656 455.32C284.656 454.211 284.549 453.144 284.336 452.12C284.123 451.096 283.739 450.2 283.184 449.432C282.629 448.621 281.861 447.981 280.88 447.512C279.899 447.043 278.661 446.808 277.168 446.808C269.061 446.808 265.008 452.76 265.008 464.664C265.008 467.523 265.243 469.955 265.712 471.96C266.224 473.965 266.949 475.608 267.888 476.888C268.869 478.168 270.064 479.107 271.472 479.704C272.923 480.301 274.565 480.6 276.4 480.6C277.936 480.6 279.387 480.387 280.752 479.96C282.16 479.533 283.547 478.957 284.912 478.232V471.832L277.104 472.216L276.528 466.392H293.296ZM306.623 472.536C306.836 475.779 307.497 478.061 308.607 479.384C309.716 480.664 311.401 481.304 313.663 481.304C315.369 481.304 316.969 481.048 318.463 480.536C319.999 480.024 321.257 479.555 322.239 479.128V484.44C320.873 485.677 319.167 486.531 317.119 487C315.071 487.512 313.087 487.768 311.167 487.768C309.588 487.768 308.031 487.576 306.495 487.192C304.959 486.808 303.572 486.083 302.335 485.016C301.14 483.907 300.159 482.392 299.391 480.472C298.665 478.509 298.303 475.949 298.303 472.792C298.303 469.677 298.687 466.968 299.455 464.664C300.223 462.317 301.268 460.376 302.591 458.84C303.956 457.304 305.535 456.152 307.327 455.384C309.161 454.616 311.145 454.232 313.279 454.232C315.455 454.232 317.225 454.616 318.591 455.384C319.999 456.109 321.087 457.048 321.855 458.2C322.665 459.352 323.199 460.632 323.455 462.04C323.753 463.448 323.903 464.813 323.903 466.136C323.903 467.501 323.796 468.739 323.583 469.848C323.412 470.957 323.177 471.853 322.879 472.536H306.623ZM312.127 458.904C310.463 458.904 309.161 459.629 308.223 461.08C307.327 462.488 306.793 464.728 306.623 467.8H317.183C317.183 467.629 317.183 467.416 317.183 467.16C317.225 466.904 317.247 466.669 317.247 466.456C317.247 465.773 317.183 465.005 317.055 464.152C316.927 463.256 316.671 462.424 316.287 461.656C315.903 460.888 315.369 460.248 314.687 459.736C314.047 459.181 313.193 458.904 312.127 458.904ZM334.707 454.232C335.56 455.469 336.243 456.557 336.755 457.496C337.267 458.435 337.651 459.395 337.907 460.376C338.547 459.693 339.272 458.989 340.083 458.264C340.894 457.496 341.747 456.835 342.643 456.28C343.582 455.683 344.584 455.192 345.651 454.808C346.718 454.424 347.827 454.232 348.979 454.232C350.046 454.232 351.07 454.424 352.051 454.808C353.075 455.192 353.971 455.832 354.739 456.728C355.507 457.624 356.126 458.84 356.595 460.376C357.064 461.912 357.299 463.832 357.299 466.136C357.299 466.733 357.278 467.608 357.235 468.76C357.235 469.912 357.214 471.149 357.171 472.472C357.128 473.752 357.086 474.989 357.043 476.184C357.043 477.379 357.043 478.296 357.043 478.936C357.043 480.344 357.128 481.709 357.299 483.032C357.512 484.312 357.854 485.379 358.323 486.232L349.427 487.768C349.128 486.787 348.936 485.72 348.851 484.568C348.808 483.416 348.787 482.413 348.787 481.56C348.787 480.365 348.808 479.149 348.851 477.912C348.936 476.632 349 475.416 349.043 474.264C349.128 473.069 349.192 471.96 349.235 470.936C349.32 469.869 349.363 468.952 349.363 468.184C349.363 465.667 348.936 463.939 348.083 463C347.23 462.061 346.056 461.592 344.563 461.592C343.326 461.592 342.174 461.784 341.107 462.168C340.083 462.552 339.166 463.021 338.355 463.576C338.44 464.387 338.483 465.283 338.483 466.264C338.483 467.245 338.483 468.376 338.483 469.656C338.483 471.619 338.483 473.389 338.483 474.968C338.483 476.547 338.483 478.019 338.483 479.384C338.526 480.749 338.547 482.051 338.547 483.288C338.59 484.483 338.632 485.72 338.675 487H330.035C330.078 485.976 330.12 484.824 330.163 483.544C330.206 482.264 330.248 480.92 330.291 479.512C330.376 478.061 330.44 476.589 330.483 475.096C330.526 473.56 330.547 472.088 330.547 470.68C330.547 469.016 330.504 467.672 330.419 466.648C330.334 465.581 330.163 464.664 329.907 463.896C329.651 463.085 329.31 462.36 328.883 461.72C328.456 461.037 327.902 460.269 327.219 459.416L334.707 454.232ZM361.643 487.768C362.795 483.459 363.947 479.341 365.099 475.416C366.294 471.448 367.531 467.608 368.811 463.896C370.091 460.184 371.456 456.536 372.907 452.952C374.4 449.368 376 445.784 377.707 442.2L385.707 441.432C387.414 444.973 388.992 448.515 390.443 452.056C391.894 455.597 393.259 459.245 394.539 463C395.862 466.712 397.099 470.552 398.251 474.52C399.446 478.488 400.619 482.648 401.771 487L393.067 487.768C392.47 485.507 391.872 483.245 391.275 480.984C390.678 478.68 390.08 476.376 389.483 474.072H373.675C373.078 476.163 372.502 478.275 371.947 480.408C371.392 482.541 370.88 484.739 370.411 487L361.643 487.768ZM381.739 449.432C379.264 455.491 377.11 461.741 375.275 468.184H387.883C386.944 464.984 385.963 461.805 384.939 458.648C383.958 455.491 382.891 452.419 381.739 449.432ZM431.873 467.864H416.001C416.001 471.789 416.001 475.267 416.001 478.296C416.044 481.283 416.108 484.184 416.193 487H407.169C407.212 484.952 407.254 483.16 407.297 481.624C407.382 480.045 407.446 478.424 407.489 476.76C407.532 475.053 407.574 473.112 407.617 470.936C407.66 468.76 407.681 466.029 407.681 462.744C407.681 459.459 407.66 456.088 407.617 452.632C407.574 449.133 407.489 445.656 407.361 442.2H434.561V448.472H416.129C416.044 450.264 416.001 452.248 416.001 454.424C416.001 456.6 416.001 459.117 416.001 461.976H431.873V467.864ZM447.706 487.768C448.858 483.459 450.01 479.341 451.161 475.416C452.356 471.448 453.594 467.608 454.874 463.896C456.154 460.184 457.519 456.536 458.97 452.952C460.463 449.368 462.063 445.784 463.77 442.2L471.77 441.432C473.476 444.973 475.055 448.515 476.506 452.056C477.956 455.597 479.322 459.245 480.602 463C481.924 466.712 483.162 470.552 484.314 474.52C485.508 478.488 486.682 482.648 487.834 487L479.13 487.768C478.532 485.507 477.935 483.245 477.338 480.984C476.74 478.68 476.143 476.376 475.546 474.072H459.738C459.14 476.163 458.564 478.275 458.01 480.408C457.455 482.541 456.943 484.739 456.474 487L447.706 487.768ZM467.802 449.432C465.327 455.491 463.172 461.741 461.338 468.184H473.946C473.007 464.984 472.026 461.805 471.002 458.648C470.02 455.491 468.954 452.419 467.802 449.432ZM502.576 442.2C502.448 443.565 502.341 444.973 502.256 446.424C502.213 447.832 502.17 449.411 502.128 451.16C502.128 452.867 502.106 454.787 502.064 456.92C502.064 459.053 502.064 461.485 502.064 464.216C502.064 466.776 502.064 469.101 502.064 471.192C502.064 473.24 502.064 475.16 502.064 476.952C502.106 478.744 502.128 480.451 502.128 482.072C502.17 483.693 502.213 485.336 502.256 487H493.232C493.274 484.952 493.317 483.16 493.36 481.624C493.445 480.045 493.509 478.424 493.552 476.76C493.594 475.053 493.637 473.112 493.68 470.936C493.722 468.76 493.744 466.029 493.744 462.744C493.744 459.459 493.722 456.195 493.68 452.952C493.637 449.667 493.552 446.296 493.424 442.84L502.576 442.2Z" fill="#E7F0F3"/>
<path d="M382.361 328.49C387.422 328.49 391.525 324.274 391.525 319.073C391.525 313.873 387.422 309.657 382.361 309.657C377.3 309.657 373.197 313.873 373.197 319.073C373.197 324.274 377.3 328.49 382.361 328.49Z" fill="url(#paint6_linear_7_5353)"/>
<path d="M424.783 328.49C429.844 328.49 433.947 324.274 433.947 319.073C433.947 313.873 429.844 309.657 424.783 309.657C419.722 309.657 415.619 313.873 415.619 319.073C415.619 324.274 419.722 328.49 424.783 328.49Z" fill="url(#paint7_linear_7_5353)"/>
<path d="M392.966 347.358C398.027 347.358 402.13 343.143 402.13 337.942C402.13 332.742 398.027 328.526 392.966 328.526C387.905 328.526 383.802 332.742 383.802 337.942C383.802 343.143 387.905 347.358 392.966 347.358Z" fill="url(#paint8_linear_7_5353)"/>
<path d="M414.177 309.621C419.238 309.621 423.341 305.405 423.341 300.205C423.341 295.004 419.238 290.788 414.177 290.788C409.116 290.788 405.013 295.004 405.013 300.205C405.013 305.405 409.116 309.621 414.177 309.621Z" fill="url(#paint9_linear_7_5353)"/>
<path d="M414.177 347.358C419.238 347.358 423.341 343.143 423.341 337.942C423.341 332.742 419.238 328.526 414.177 328.526C409.116 328.526 405.013 332.742 405.013 337.942C405.013 343.143 409.116 347.358 414.177 347.358Z" fill="url(#paint10_linear_7_5353)"/>
<path d="M392.966 309.621C398.027 309.621 402.13 305.405 402.13 300.205C402.13 295.004 398.027 290.788 392.966 290.788C387.905 290.788 383.802 295.004 383.802 300.205C383.802 305.405 387.905 309.621 392.966 309.621Z" fill="url(#paint11_linear_7_5353)"/>
<path d="M450.423 324.203C453.077 324.203 455.228 321.993 455.228 319.266C455.228 316.539 453.077 314.329 450.423 314.329C447.77 314.329 445.619 316.539 445.619 319.266C445.619 321.993 447.77 324.203 450.423 324.203Z" fill="url(#paint12_linear_7_5353)"/>
<path d="M356.72 324.203C359.374 324.203 361.525 321.993 361.525 319.266C361.525 316.539 359.374 314.329 356.72 314.329C354.067 314.329 351.916 316.539 351.916 319.266C351.916 321.993 354.067 324.203 356.72 324.203Z" fill="url(#paint13_linear_7_5353)"/>
<path d="M339.681 322.397C341.364 322.397 342.728 320.995 342.728 319.266C342.728 317.537 341.364 316.135 339.681 316.135C337.998 316.135 336.634 317.537 336.634 319.266C336.634 320.995 337.998 322.397 339.681 322.397Z" fill="url(#paint14_linear_7_5353)"/>
<path d="M467.462 322.397C469.145 322.397 470.509 320.995 470.509 319.266C470.509 317.537 469.145 316.135 467.462 316.135C465.78 316.135 464.416 317.537 464.416 319.266C464.416 320.995 465.78 322.397 467.462 322.397Z" fill="url(#paint15_linear_7_5353)"/>
<path d="M426.998 282.504C429.651 282.504 431.802 280.294 431.802 277.567C431.802 274.841 429.651 272.63 426.998 272.63C424.344 272.63 422.193 274.841 422.193 277.567C422.193 280.294 424.344 282.504 426.998 282.504Z" fill="url(#paint16_linear_7_5353)"/>
<path d="M380.146 365.902C382.8 365.902 384.951 363.692 384.951 360.965C384.951 358.238 382.8 356.028 380.146 356.028C377.492 356.028 375.341 358.238 375.341 360.965C375.341 363.692 377.492 365.902 380.146 365.902Z" fill="url(#paint17_linear_7_5353)"/>
<path d="M371.626 379.244C373.309 379.244 374.673 377.842 374.673 376.113C374.673 374.384 373.309 372.982 371.626 372.982C369.944 372.982 368.58 374.384 368.58 376.113C368.58 377.842 369.944 379.244 371.626 379.244Z" fill="url(#paint18_linear_7_5353)"/>
<path d="M435.517 265.55C437.2 265.55 438.564 264.148 438.564 262.419C438.564 260.69 437.2 259.288 435.517 259.288C433.834 259.288 432.47 260.69 432.47 262.419C432.47 264.148 433.834 265.55 435.517 265.55Z" fill="url(#paint19_linear_7_5353)"/>
<path d="M380.146 282.504C382.8 282.504 384.951 280.294 384.951 277.567C384.951 274.841 382.8 272.63 380.146 272.63C377.492 272.63 375.341 274.841 375.341 277.567C375.341 280.294 377.492 282.504 380.146 282.504Z" fill="url(#paint20_linear_7_5353)"/>
<path d="M426.998 365.902C429.651 365.902 431.802 363.692 431.802 360.965C431.802 358.238 429.651 356.028 426.998 356.028C424.344 356.028 422.193 358.238 422.193 360.965C422.193 363.692 424.344 365.902 426.998 365.902Z" fill="url(#paint21_linear_7_5353)"/>
<path d="M435.517 379.244C437.2 379.244 438.564 377.842 438.564 376.113C438.564 374.384 437.2 372.982 435.517 372.982C433.834 372.982 432.47 374.384 432.47 376.113C432.47 377.842 433.834 379.244 435.517 379.244Z" fill="url(#paint22_linear_7_5353)"/>
<path d="M371.626 265.55C373.309 265.55 374.673 264.148 374.673 262.419C374.673 260.69 373.309 259.288 371.626 259.288C369.944 259.288 368.58 260.69 368.58 262.419C368.58 264.148 369.944 265.55 371.626 265.55Z" fill="url(#paint23_linear_7_5353)"/>
<path d="M403.572 287.272C406.627 287.272 409.103 284.728 409.103 281.589C409.103 278.45 406.627 275.905 403.572 275.905C400.517 275.905 398.041 278.45 398.041 281.589C398.041 284.728 400.517 287.272 403.572 287.272Z" fill="url(#paint24_linear_7_5353)"/>
<path d="M403.572 263.009C405.662 263.009 407.357 261.268 407.357 259.12C407.357 256.972 405.662 255.231 403.572 255.231C401.481 255.231 399.787 256.972 399.787 259.12C399.787 261.268 401.481 263.009 403.572 263.009Z" fill="url(#paint25_linear_7_5353)"/>
<path d="M403.572 362.627C406.627 362.627 409.103 360.082 409.103 356.943C409.103 353.804 406.627 351.26 403.572 351.26C400.517 351.26 398.041 353.804 398.041 356.943C398.041 360.082 400.517 362.627 403.572 362.627Z" fill="url(#paint26_linear_7_5353)"/>
<path d="M403.572 383.302C405.662 383.302 407.357 381.56 407.357 379.412C407.357 377.264 405.662 375.523 403.572 375.523C401.481 375.523 399.787 377.264 399.787 379.412C399.787 381.56 401.481 383.302 403.572 383.302Z" fill="url(#paint27_linear_7_5353)"/>
<path d="M371.814 306.117C374.869 306.117 377.345 303.572 377.345 300.433C377.345 297.295 374.869 294.75 371.814 294.75C368.759 294.75 366.283 297.295 366.283 300.433C366.283 303.572 368.759 306.117 371.814 306.117Z" fill="url(#paint28_linear_7_5353)"/>
<path d="M352.876 293.076C354.967 293.076 356.662 291.335 356.662 289.187C356.662 287.039 354.967 285.298 352.876 285.298C350.786 285.298 349.091 287.039 349.091 289.187C349.091 291.335 350.786 293.076 352.876 293.076Z" fill="url(#paint29_linear_7_5353)"/>
<path d="M435.33 343.782C438.384 343.782 440.861 341.238 440.861 338.099C440.861 334.96 438.384 332.415 435.33 332.415C432.275 332.415 429.798 334.96 429.798 338.099C429.798 341.238 432.275 343.782 435.33 343.782Z" fill="url(#paint30_linear_7_5353)"/>
<path d="M454.267 353.235C456.358 353.235 458.052 351.493 458.052 349.345C458.052 347.197 456.358 345.456 454.267 345.456C452.177 345.456 450.482 347.197 450.482 349.345C450.482 351.493 452.177 353.235 454.267 353.235Z" fill="url(#paint31_linear_7_5353)"/>
<path d="M371.814 343.782C374.869 343.782 377.345 341.238 377.345 338.099C377.345 334.96 374.869 332.415 371.814 332.415C368.759 332.415 366.283 334.96 366.283 338.099C366.283 341.238 368.759 343.782 371.814 343.782Z" fill="url(#paint32_linear_7_5353)"/>
<path d="M352.876 353.235C354.967 353.235 356.662 351.493 356.662 349.345C356.662 347.197 354.967 345.456 352.876 345.456C350.786 345.456 349.091 347.197 349.091 349.345C349.091 351.493 350.786 353.235 352.876 353.235Z" fill="url(#paint33_linear_7_5353)"/>
<path d="M435.33 306.117C438.384 306.117 440.861 303.572 440.861 300.433C440.861 297.295 438.384 294.75 435.33 294.75C432.275 294.75 429.798 297.295 429.798 300.433C429.798 303.572 432.275 306.117 435.33 306.117Z" fill="url(#paint34_linear_7_5353)"/>
<path d="M454.267 293.076C456.358 293.076 458.052 291.335 458.052 289.187C458.052 287.039 456.358 285.298 454.267 285.298C452.177 285.298 450.482 287.039 450.482 289.187C450.482 291.335 452.177 293.076 454.267 293.076Z" fill="url(#paint35_linear_7_5353)"/>
<defs>
<linearGradient id="paint0_linear_7_5353" x1="384.555" y1="176.82" x2="384.555" y2="642.238" gradientUnits="userSpaceOnUse">
<stop stop-color="#8FBACA"/>
<stop offset="1" stop-color="#F2F2F2"/>
</linearGradient>
<linearGradient id="paint1_linear_7_5353" x1="292.613" y1="130.562" x2="292.613" y2="502.938" gradientUnits="userSpaceOnUse">
<stop stop-color="#8FBACA"/>
<stop offset="1" stop-color="#F2F2F2"/>
</linearGradient>
<linearGradient id="paint2_linear_7_5353" x1="624.656" y1="196.437" x2="624.656" y2="522.188" gradientUnits="userSpaceOnUse">
<stop stop-color="#8FBACA"/>
<stop offset="1" stop-color="#F2F2F2"/>
</linearGradient>
<linearGradient id="paint3_linear_7_5353" x1="485.94" y1="350" x2="485.94" y2="715.385" gradientUnits="userSpaceOnUse">
<stop stop-color="#8FBACA"/>
<stop offset="1" stop-color="#F2F2F2"/>
</linearGradient>
<linearGradient id="paint4_linear_7_5353" x1="169.193" y1="129.875" x2="169.193" y2="638.188" gradientUnits="userSpaceOnUse">
<stop stop-color="#8FBACA"/>
<stop offset="1" stop-color="#F2F2F2"/>
</linearGradient>
<linearGradient id="paint5_linear_7_5353" x1="512.571" y1="84.9247" x2="512.571" y2="320.438" gradientUnits="userSpaceOnUse">
<stop stop-color="#8FBACA"/>
<stop offset="1" stop-color="#F2F2F2"/>
</linearGradient>
<linearGradient id="paint6_linear_7_5353" x1="382.361" y1="309.657" x2="382.361" y2="328.49" gradientUnits="userSpaceOnUse">
<stop stop-color="#B3D1DB"/>
<stop offset="1" stop-color="#8FBACA"/>
</linearGradient>
<linearGradient id="paint7_linear_7_5353" x1="424.783" y1="309.657" x2="424.783" y2="328.49" gradientUnits="userSpaceOnUse">
<stop stop-color="#B3D1DB"/>
<stop offset="1" stop-color="#8FBACA"/>
</linearGradient>
<linearGradient id="paint8_linear_7_5353" x1="392.966" y1="328.526" x2="392.966" y2="347.358" gradientUnits="userSpaceOnUse">
<stop stop-color="#B3D1DB"/>
<stop offset="1" stop-color="#8FBACA"/>
</linearGradient>
<linearGradient id="paint9_linear_7_5353" x1="414.177" y1="290.788" x2="414.177" y2="309.621" gradientUnits="userSpaceOnUse">
<stop stop-color="#B3D1DB"/>
<stop offset="1" stop-color="#8FBACA"/>
</linearGradient>
<linearGradient id="paint10_linear_7_5353" x1="414.177" y1="328.526" x2="414.177" y2="347.358" gradientUnits="userSpaceOnUse">
<stop stop-color="#B3D1DB"/>
<stop offset="1" stop-color="#8FBACA"/>
</linearGradient>
<linearGradient id="paint11_linear_7_5353" x1="392.966" y1="290.788" x2="392.966" y2="309.621" gradientUnits="userSpaceOnUse">
<stop stop-color="#B3D1DB"/>
<stop offset="1" stop-color="#8FBACA"/>
</linearGradient>
<linearGradient id="paint12_linear_7_5353" x1="450.423" y1="314.329" x2="450.423" y2="324.203" gradientUnits="userSpaceOnUse">
<stop stop-color="#B3D1DB"/>
<stop offset="1" stop-color="#8FBACA"/>
</linearGradient>
<linearGradient id="paint13_linear_7_5353" x1="356.72" y1="314.329" x2="356.72" y2="324.203" gradientUnits="userSpaceOnUse">
<stop stop-color="#B3D1DB"/>
<stop offset="1" stop-color="#8FBACA"/>
</linearGradient>
<linearGradient id="paint14_linear_7_5353" x1="339.681" y1="316.135" x2="339.681" y2="322.397" gradientUnits="userSpaceOnUse">
<stop stop-color="#B3D1DB"/>
<stop offset="1" stop-color="#8FBACA"/>
</linearGradient>
<linearGradient id="paint15_linear_7_5353" x1="467.462" y1="316.135" x2="467.462" y2="322.397" gradientUnits="userSpaceOnUse">
<stop stop-color="#B3D1DB"/>
<stop offset="1" stop-color="#8FBACA"/>
</linearGradient>
<linearGradient id="paint16_linear_7_5353" x1="426.998" y1="272.63" x2="426.998" y2="282.504" gradientUnits="userSpaceOnUse">
<stop stop-color="#B3D1DB"/>
<stop offset="1" stop-color="#8FBACA"/>
</linearGradient>
<linearGradient id="paint17_linear_7_5353" x1="380.146" y1="356.028" x2="380.146" y2="365.902" gradientUnits="userSpaceOnUse">
<stop stop-color="#B3D1DB"/>
<stop offset="1" stop-color="#8FBACA"/>
</linearGradient>
<linearGradient id="paint18_linear_7_5353" x1="371.626" y1="372.982" x2="371.626" y2="379.244" gradientUnits="userSpaceOnUse">
<stop stop-color="#B3D1DB"/>
<stop offset="1" stop-color="#8FBACA"/>
</linearGradient>
<linearGradient id="paint19_linear_7_5353" x1="435.517" y1="259.288" x2="435.517" y2="265.55" gradientUnits="userSpaceOnUse">
<stop stop-color="#B3D1DB"/>
<stop offset="1" stop-color="#8FBACA"/>
</linearGradient>
<linearGradient id="paint20_linear_7_5353" x1="380.146" y1="272.63" x2="380.146" y2="282.504" gradientUnits="userSpaceOnUse">
<stop stop-color="#B3D1DB"/>
<stop offset="1" stop-color="#8FBACA"/>
</linearGradient>
<linearGradient id="paint21_linear_7_5353" x1="426.998" y1="356.028" x2="426.998" y2="365.902" gradientUnits="userSpaceOnUse">
<stop stop-color="#B3D1DB"/>
<stop offset="1" stop-color="#8FBACA"/>
</linearGradient>
<linearGradient id="paint22_linear_7_5353" x1="435.517" y1="372.982" x2="435.517" y2="379.244" gradientUnits="userSpaceOnUse">
<stop stop-color="#B3D1DB"/>
<stop offset="1" stop-color="#8FBACA"/>
</linearGradient>
<linearGradient id="paint23_linear_7_5353" x1="371.626" y1="259.288" x2="371.626" y2="265.55" gradientUnits="userSpaceOnUse">
<stop stop-color="#B3D1DB"/>
<stop offset="1" stop-color="#8FBACA"/>
</linearGradient>
<linearGradient id="paint24_linear_7_5353" x1="403.572" y1="275.905" x2="403.572" y2="287.272" gradientUnits="userSpaceOnUse">
<stop stop-color="#B3D1DB"/>
<stop offset="1" stop-color="#8FBACA"/>
</linearGradient>
<linearGradient id="paint25_linear_7_5353" x1="403.572" y1="255.231" x2="403.572" y2="263.009" gradientUnits="userSpaceOnUse">
<stop stop-color="#B3D1DB"/>
<stop offset="1" stop-color="#8FBACA"/>
</linearGradient>
<linearGradient id="paint26_linear_7_5353" x1="403.572" y1="351.26" x2="403.572" y2="362.627" gradientUnits="userSpaceOnUse">
<stop stop-color="#B3D1DB"/>
<stop offset="1" stop-color="#8FBACA"/>
</linearGradient>
<linearGradient id="paint27_linear_7_5353" x1="403.572" y1="375.523" x2="403.572" y2="383.302" gradientUnits="userSpaceOnUse">
<stop stop-color="#B3D1DB"/>
<stop offset="1" stop-color="#8FBACA"/>
</linearGradient>
<linearGradient id="paint28_linear_7_5353" x1="371.814" y1="294.75" x2="371.814" y2="306.117" gradientUnits="userSpaceOnUse">
<stop stop-color="#B3D1DB"/>
<stop offset="1" stop-color="#8FBACA"/>
</linearGradient>
<linearGradient id="paint29_linear_7_5353" x1="352.876" y1="285.298" x2="352.876" y2="293.076" gradientUnits="userSpaceOnUse">
<stop stop-color="#B3D1DB"/>
<stop offset="1" stop-color="#8FBACA"/>
</linearGradient>
<linearGradient id="paint30_linear_7_5353" x1="435.33" y1="332.415" x2="435.33" y2="343.782" gradientUnits="userSpaceOnUse">
<stop stop-color="#B3D1DB"/>
<stop offset="1" stop-color="#8FBACA"/>
</linearGradient>
<linearGradient id="paint31_linear_7_5353" x1="454.267" y1="345.456" x2="454.267" y2="353.235" gradientUnits="userSpaceOnUse">
<stop stop-color="#B3D1DB"/>
<stop offset="1" stop-color="#8FBACA"/>
</linearGradient>
<linearGradient id="paint32_linear_7_5353" x1="371.814" y1="332.415" x2="371.814" y2="343.782" gradientUnits="userSpaceOnUse">
<stop stop-color="#B3D1DB"/>
<stop offset="1" stop-color="#8FBACA"/>
</linearGradient>
<linearGradient id="paint33_linear_7_5353" x1="352.876" y1="345.456" x2="352.876" y2="353.235" gradientUnits="userSpaceOnUse">
<stop stop-color="#B3D1DB"/>
<stop offset="1" stop-color="#8FBACA"/>
</linearGradient>
<linearGradient id="paint34_linear_7_5353" x1="435.33" y1="294.75" x2="435.33" y2="306.117" gradientUnits="userSpaceOnUse">
<stop stop-color="#B3D1DB"/>
<stop offset="1" stop-color="#8FBACA"/>
</linearGradient>
<linearGradient id="paint35_linear_7_5353" x1="454.267" y1="285.298" x2="454.267" y2="293.076" gradientUnits="userSpaceOnUse">
<stop stop-color="#B3D1DB"/>
<stop offset="1" stop-color="#8FBACA"/>
</linearGradient>
<clipPath id="clip0_7_5353">
<rect width="800" height="800" fill="white"/>
</clipPath>
</defs>
</svg>
